# xmcd CD database file
#
# Track frame offsets:
#	150
#	45732
#	90475
#	112812
#	150088
#	182583
#	207945
#	253733
#
# Disc length: 3700 seconds
#
# Revision: 0
# Processed by: cddbd v1.5.2PL0 Copyright (c) Steve Scherf et al.
# Submitted via: CDex 1.70beta2
#
DISCID=570e7208
DTITLE=Naruyoshi Kikuchi Dub Sextet - The Revolution will Not be Computerize
DYEAR=2007
DGENRE=Jazz
TTITLE0=Dub Liz
TTITLE1=Dub Sorcerer
TTITLE2=AAAL
TTITLE3=Parla
TTITLE4=Invocation
TTITLE5=Caroline Champetier
TTITLE6=Susan Sontag
TTITLE7=Betty-Go-Round
EXTD=YEAR: 2007
EXTT0=
EXTT1=
EXTT2=
EXTT3=
EXTT4=
EXTT5=
EXTT6=
EXTT7=
PLAYORDER=
